<svg width="345" height="343" viewBox="0 0 345 343" fill="none" xmlns="http://www.w3.org/2000/svg">
<rect width="344.146" height="342.073" fill="white"/>
<path d="M141.292 136.19C162.047 142.181 179.624 151.588 191.271 161.897C202.995 172.275 208.375 183.235 205.721 192.429C203.067 201.624 192.674 208.031 177.222 210.565C161.873 213.082 141.987 211.675 121.232 205.683C100.477 199.692 82.9003 190.286 71.2538 179.976C59.5293 169.598 54.1494 158.637 56.8035 149.443C59.4577 140.249 69.8509 133.842 85.3024 131.308C100.651 128.791 120.537 130.199 141.292 136.19Z" stroke="url(#paint0_linear_72_135)" stroke-width="2.5"/>
<path d="M106.035 154.148C117.779 136.001 131.6 121.707 144.404 113.247C150.807 109.017 156.905 106.279 162.322 105.215C167.731 104.153 172.381 104.771 176.029 107.132C179.678 109.493 182.146 113.481 183.393 118.851C184.642 124.228 184.643 130.912 183.406 138.487C180.935 153.633 173.558 172.097 161.814 190.244C150.071 208.39 136.25 222.684 123.446 231.144C117.042 235.375 110.944 238.113 105.527 239.177C100.118 240.239 95.4689 239.621 91.8204 237.259C88.1719 234.898 85.7032 230.911 84.4562 225.541C83.2074 220.164 83.2072 213.479 84.4433 205.904C86.9149 190.758 94.2922 172.294 106.035 154.148Z" stroke="url(#paint1_linear_72_135)" stroke-width="2.5"/>
<path d="M105.362 185.771C95.1486 167.408 89.2783 148.975 88.003 134.051C86.7166 118.998 90.1226 108.051 97.7291 103.82C105.336 99.5895 116.432 102.47 128.543 111.502C140.549 120.458 153.114 135.168 163.327 153.53C173.541 171.893 179.411 190.327 180.686 205.251C181.973 220.304 178.567 231.251 170.96 235.482C163.354 239.713 152.257 236.832 140.147 227.8C128.14 218.844 115.575 204.134 105.362 185.771Z" stroke="url(#paint2_linear_72_135)" stroke-width="2.5"/>
<circle cx="61.6478" cy="141.994" r="6" transform="rotate(72.377 61.6478 141.994)" fill="url(#paint3_linear_72_135)"/>
<circle cx="173.648" cy="105.494" r="6" transform="rotate(72.377 173.648 105.494)" fill="url(#paint4_linear_72_135)"/>
<circle cx="164.648" cy="237.494" r="6" transform="rotate(72.377 164.648 237.494)" fill="url(#paint5_linear_72_135)"/>
<circle cx="131.842" cy="170.116" r="20" transform="rotate(72.377 131.842 170.116)" fill="url(#paint6_radial_72_135)"/>
<path d="M65.224 153.259H72.952V202.315H65.224V183.431C63.7008 184.641 62.0208 185.582 60.184 186.254C58.3472 186.881 56.4208 187.195 54.4048 187.195C51.224 187.195 48.2896 186.433 45.6016 184.91C42.9584 183.387 40.8528 181.326 39.2848 178.727C37.7616 176.084 37 173.217 37 170.126C37 166.99 37.7616 164.1 39.2848 161.457C40.8528 158.769 42.9584 156.641 45.6016 155.073C48.2896 153.505 51.224 152.721 54.4048 152.721C56.4208 152.721 58.3472 153.057 60.184 153.729C62.0656 154.401 63.7456 155.342 65.224 156.551V153.259ZM55.0768 179.937C56.9584 179.937 58.6608 179.467 60.184 178.526C61.752 177.585 62.984 176.375 63.88 174.897C64.776 173.374 65.224 171.783 65.224 170.126C65.224 168.379 64.776 166.721 63.88 165.153C62.984 163.585 61.752 162.331 60.184 161.39C58.6608 160.449 56.9584 159.979 55.0768 159.979C53.1952 159.979 51.448 160.427 49.8352 161.323C48.2672 162.219 47.0128 163.451 46.072 165.019C45.176 166.587 44.728 168.289 44.728 170.126C44.728 171.918 45.176 173.575 46.072 175.099C47.0128 176.577 48.2672 177.764 49.8352 178.66C51.448 179.511 53.1952 179.937 55.0768 179.937Z" fill="#2D3D48"/>
<path d="M102.228 153.259H109.956V186.859H102.228V184.439C99.8985 186.455 96.6953 187.463 92.6185 187.463C90.0649 187.463 87.7129 186.836 85.5625 185.582C83.4569 184.283 81.7769 182.603 80.5225 180.542C79.2681 178.436 78.6409 176.219 78.6409 173.889V153.259H86.3689V172.142C86.3689 173.307 86.6153 174.494 87.1081 175.703C87.6457 176.868 88.4969 177.854 89.6617 178.66C90.8713 179.467 92.3945 179.87 94.2313 179.87C97.0089 179.87 99.0249 179.019 100.279 177.316C101.579 175.614 102.228 173.643 102.228 171.403V153.259Z" fill="#2D3D48"/>
<path d="M141.872 153.259H149.6V186.859H141.872V183.767C140.394 184.887 138.759 185.761 136.967 186.388C135.175 186.971 133.293 187.262 131.322 187.262C128.096 187.262 125.14 186.545 122.452 185.111C119.808 183.633 117.725 181.639 116.202 179.131C114.679 176.577 113.917 173.732 113.917 170.596C113.917 167.415 114.679 164.481 116.202 161.793C117.77 159.06 119.876 156.887 122.519 155.275C125.162 153.662 128.096 152.855 131.322 152.855C133.248 152.855 135.108 153.191 136.9 153.863C138.736 154.535 140.394 155.499 141.872 156.753V153.259ZM131.658 179.803C133.584 179.803 135.309 179.377 136.832 178.526C138.4 177.675 139.632 176.555 140.528 175.166C141.424 173.732 141.872 172.209 141.872 170.596C141.872 168.759 141.424 167.057 140.528 165.489C139.632 163.921 138.4 162.689 136.832 161.793C135.309 160.852 133.584 160.382 131.658 160.382C129.776 160.382 128.074 160.83 126.551 161.726C125.028 162.577 123.818 163.787 122.922 165.355C122.071 166.923 121.645 168.67 121.645 170.596C121.645 172.254 122.071 173.799 122.922 175.233C123.818 176.622 125.028 177.742 126.551 178.593C128.119 179.399 129.821 179.803 131.658 179.803Z" fill="#2D3D48"/>
<path d="M188.584 186.859H180.856V167.908C180.856 165.803 180.184 163.921 178.84 162.263C177.496 160.606 175.279 159.777 172.188 159.777C169.32 159.777 167.17 160.673 165.736 162.465C164.348 164.212 163.653 166.206 163.653 168.446V186.859H155.925V153.259H163.653V155.611C166.162 153.326 169.791 152.183 174.54 152.183C177.317 152.183 179.759 152.811 181.864 154.065C184.015 155.319 185.65 156.999 186.77 159.105C187.935 161.166 188.54 163.383 188.584 165.758V186.859Z" fill="#2D3D48"/>
<path d="M213.63 160.315H205.97V176.846C205.97 177.876 206.194 178.683 206.642 179.265C207.09 179.803 208.03 180.071 209.464 180.071H212.018V186.388C210.315 186.702 209.106 186.859 208.389 186.859C205.566 186.859 203.416 186.478 201.938 185.716C200.459 184.91 199.474 183.835 198.981 182.491C198.488 181.147 198.242 179.467 198.242 177.451V160.315H192.194V153.259H198.242V147.009L205.97 143.918V153.259H213.63V160.315Z" fill="#2D3D48"/>
<path d="M242.469 153.259H250.197V186.859H242.469V184.439C240.139 186.455 236.936 187.463 232.859 187.463C230.306 187.463 227.954 186.836 225.803 185.582C223.698 184.283 222.018 182.603 220.763 180.542C219.509 178.436 218.882 176.219 218.882 173.889V153.259H226.61V172.142C226.61 173.307 226.856 174.494 227.349 175.703C227.886 176.868 228.738 177.854 229.902 178.66C231.112 179.467 232.635 179.87 234.472 179.87C237.25 179.87 239.266 179.019 240.52 177.316C241.819 175.614 242.469 173.643 242.469 171.403V153.259Z" fill="#2D3D48"/>
<path d="M306.897 186.859H299.169V167.169C299.169 165.287 298.609 163.563 297.489 161.995C296.414 160.427 294.554 159.643 291.911 159.643C289.537 159.643 287.834 160.427 286.804 161.995C285.818 163.563 285.326 165.444 285.326 167.639V186.859H277.598V167.169C277.598 165.287 277.082 163.563 276.052 161.995C275.022 160.427 273.23 159.643 270.676 159.643C265.972 159.643 263.62 162.308 263.62 167.639V186.859H255.892V153.259H263.62V155.073C265.681 153.147 268.548 152.183 272.222 152.183C274.686 152.183 276.814 152.721 278.606 153.796C280.442 154.871 281.921 156.305 283.041 158.097C285.191 154.155 288.865 152.183 294.062 152.183C296.839 152.183 299.191 152.811 301.118 154.065C303.044 155.275 304.478 156.887 305.418 158.903C306.404 160.919 306.897 163.137 306.897 165.556V186.859Z" fill="#2D3D48"/>
<path d="M82.892 207.551C83.9353 207.551 84.8955 207.811 85.7725 208.331C86.6495 208.836 87.345 209.527 87.8591 210.404C88.3883 211.265 88.6529 212.201 88.6529 213.211C88.6529 214.222 88.3883 215.165 87.8591 216.041C87.345 216.903 86.6495 217.594 85.7725 218.114C84.8955 218.619 83.9353 218.872 82.892 218.872C81.6068 218.872 80.4501 218.463 79.4219 217.646V218.693H76.9724V202.315H79.4219V208.777C80.4501 207.96 81.6068 207.551 82.892 207.551ZM82.5291 216.487C83.1642 216.487 83.7539 216.339 84.2982 216.041C84.8426 215.73 85.2735 215.328 85.591 214.838C85.9086 214.333 86.0673 213.798 86.0673 213.234C86.0673 212.654 85.9086 212.12 85.591 211.629C85.2735 211.124 84.8426 210.723 84.2982 210.426C83.7539 210.114 83.1642 209.958 82.5291 209.958C81.9092 209.958 81.3649 210.107 80.8961 210.404C80.4274 210.701 80.0645 211.102 79.8075 211.607C79.5504 212.097 79.4219 212.632 79.4219 213.211C79.4219 213.791 79.5504 214.333 79.8075 214.838C80.0645 215.343 80.4274 215.744 80.8961 216.041C81.3649 216.339 81.9092 216.487 82.5291 216.487Z" fill="#2D3D48"/>
<path d="M98.4201 207.551H101.482L96.1067 220.342C95.653 221.531 94.9726 222.407 94.0654 222.972C93.1733 223.536 91.9334 223.819 90.3458 223.819H90.0056V221.523H90.3458C91.1472 221.523 91.8503 221.375 92.4551 221.078C93.075 220.781 93.5135 220.298 93.7706 219.629L94.0881 218.604L88.7355 207.551H91.7973L95.5396 215.306L98.4201 207.551Z" fill="#2D3D48"/>
<path d="M127.718 218.693H124.928L123.953 216.153H115.992L115.017 218.693H112.091L118.351 202.315H121.458L127.718 218.693ZM120.007 205.746L116.967 213.613H123L120.007 205.746Z" fill="#2D3D48"/>
<path d="M143.266 215.106C142.586 216.294 141.648 217.193 140.454 217.802C139.274 218.396 137.898 218.693 136.326 218.693C134.844 218.693 133.475 218.329 132.22 217.601C130.981 216.873 129.99 215.885 129.249 214.638C128.524 213.39 128.161 212.008 128.161 210.493C128.161 208.992 128.531 207.618 129.272 206.37C130.028 205.122 131.034 204.134 132.289 203.406C133.544 202.679 134.889 202.315 136.326 202.315C137.807 202.315 139.13 202.612 140.295 203.206C141.459 203.785 142.389 204.625 143.084 205.724L140.839 206.749C140.219 206.14 139.524 205.679 138.752 205.367C137.996 205.041 137.188 204.877 136.326 204.877C135.297 204.877 134.337 205.122 133.445 205.613C132.568 206.103 131.873 206.779 131.359 207.64C130.845 208.487 130.587 209.438 130.587 210.493C130.587 211.548 130.845 212.506 131.359 213.367C131.873 214.229 132.568 214.905 133.445 215.395C134.337 215.885 135.297 216.131 136.326 216.131C137.278 216.131 138.133 215.975 138.889 215.663C139.66 215.336 140.31 214.868 140.839 214.259L143.266 215.106Z" fill="#2D3D48"/>
<path d="M162.336 202.315V218.693H159.864V206.393L154.534 217.646H153.105L152.765 216.755L152.402 215.908L147.957 206.459V218.693H145.303V202.315H149.023L153.831 212.766L158.798 202.315H162.336Z" fill="#2D3D48"/>
<path d="M183.52 207.685H186.038V218.693H183.52V217.757C182.492 218.56 181.313 218.961 179.982 218.961C178.908 218.961 177.926 218.716 177.034 218.225C176.157 217.72 175.461 217.044 174.947 216.197C174.448 215.351 174.198 214.415 174.198 213.39C174.198 212.335 174.448 211.362 174.947 210.47C175.461 209.579 176.157 208.873 177.034 208.354C177.926 207.819 178.908 207.551 179.982 207.551C181.282 207.551 182.462 207.975 183.52 208.821V207.685ZM180.118 216.599C180.753 216.599 181.328 216.443 181.842 216.131C182.371 215.819 182.779 215.418 183.067 214.927C183.369 214.422 183.52 213.91 183.52 213.39C183.52 212.781 183.369 212.224 183.067 211.718C182.779 211.198 182.379 210.79 181.865 210.493C181.35 210.196 180.768 210.047 180.118 210.047C179.513 210.047 178.961 210.196 178.462 210.493C177.963 210.775 177.57 211.169 177.283 211.674C176.996 212.179 176.852 212.751 176.852 213.39C176.852 213.939 176.996 214.467 177.283 214.972C177.57 215.462 177.963 215.856 178.462 216.153C178.977 216.45 179.528 216.599 180.118 216.599Z" fill="#2D3D48"/>
<path d="M195.43 209.802H192.777V215.373C192.777 215.7 192.86 215.96 193.026 216.153C193.207 216.346 193.54 216.443 194.024 216.443H194.886V218.537C194.311 218.641 193.903 218.693 193.661 218.693C192.346 218.693 191.461 218.426 191.007 217.891C190.554 217.341 190.319 216.569 190.304 215.574V209.802H188.195V207.551H190.304V205.479L192.777 204.454V207.551H195.43V209.802Z" fill="#2D3D48"/>
<path d="M220.613 202.315V213.412C220.553 214.407 220.213 215.314 219.593 216.131C218.988 216.933 218.179 217.564 217.166 218.025C216.153 218.47 215.041 218.693 213.832 218.693C212.683 218.693 211.624 218.47 210.656 218.025C209.689 217.579 208.902 216.955 208.298 216.153C207.693 215.351 207.345 214.437 207.254 213.412H207.232V202.315H209.658V212.387C209.658 213.739 210.044 214.734 210.815 215.373C211.586 215.997 212.592 216.309 213.832 216.309C216.568 216.309 218.02 215.002 218.186 212.387V202.315H220.613Z" fill="#2D3D48"/>
<path d="M237.753 215.106C237.073 216.294 236.136 217.193 234.941 217.802C233.762 218.396 232.386 218.693 230.813 218.693C229.331 218.693 227.963 218.329 226.708 217.601C225.468 216.873 224.478 215.885 223.737 214.638C223.011 213.39 222.648 212.008 222.648 210.493C222.648 208.992 223.019 207.618 223.76 206.37C224.516 205.122 225.521 204.134 226.776 203.406C228.031 202.679 229.377 202.315 230.813 202.315C232.295 202.315 233.618 202.612 234.782 203.206C235.947 203.785 236.877 204.625 237.572 205.724L235.327 206.749C234.707 206.14 234.011 205.679 233.24 205.367C232.484 205.041 231.675 204.877 230.813 204.877C229.785 204.877 228.825 205.122 227.933 205.613C227.056 206.103 226.36 206.779 225.846 207.64C225.332 208.487 225.075 209.438 225.075 210.493C225.075 211.548 225.332 212.506 225.846 213.367C226.36 214.229 227.056 214.905 227.933 215.395C228.825 215.885 229.785 216.131 230.813 216.131C231.766 216.131 232.62 215.975 233.376 215.663C234.147 215.336 234.797 214.868 235.327 214.259L237.753 215.106Z" fill="#2D3D48"/>
<path d="M241.764 202.315V216.309H249.929V218.693H239.337V202.315H241.764Z" fill="#2D3D48"/>
<path d="M266.924 218.693H264.135L263.159 216.153H255.199L254.223 218.693H251.298L257.557 202.315H260.665L266.924 218.693ZM259.213 205.746L256.174 213.613H262.207L259.213 205.746Z" fill="#2D3D48"/>
<defs>
<linearGradient id="paint0_linear_72_135" x1="65.9791" y1="113.149" x2="217.299" y2="156.829" gradientUnits="userSpaceOnUse">
<stop stop-color="#8CFE66"/>
<stop offset="0.380203" stop-color="#63F9DB"/>
<stop offset="0.703133" stop-color="#A4A3FF"/>
<stop offset="1" stop-color="#FD92FF"/>
</linearGradient>
<linearGradient id="paint1_linear_72_135" x1="62.2024" y1="219.582" x2="147.77" y2="87.3553" gradientUnits="userSpaceOnUse">
<stop stop-color="#8CFE66"/>
<stop offset="0.380203" stop-color="#63F9DB"/>
<stop offset="0.703133" stop-color="#A4A3FF"/>
<stop offset="1" stop-color="#FD92FF"/>
</linearGradient>
<linearGradient id="paint2_linear_72_135" x1="141.493" y1="253.302" x2="67.0465" y2="119.456" gradientUnits="userSpaceOnUse">
<stop stop-color="#8CFE66"/>
<stop offset="0.380203" stop-color="#63F9DB"/>
<stop offset="0.703133" stop-color="#A4A3FF"/>
<stop offset="1" stop-color="#FD92FF"/>
</linearGradient>
<linearGradient id="paint3_linear_72_135" x1="64.7534" y1="136.522" x2="57.9506" y2="146.874" gradientUnits="userSpaceOnUse">
<stop stop-color="#3DACF2"/>
<stop offset="1" stop-color="#8CFE66"/>
</linearGradient>
<linearGradient id="paint4_linear_72_135" x1="176.753" y1="100.022" x2="169.951" y2="110.374" gradientUnits="userSpaceOnUse">
<stop stop-color="#E074CD"/>
<stop offset="1" stop-color="#94C0ED"/>
</linearGradient>
<linearGradient id="paint5_linear_72_135" x1="167.753" y1="232.022" x2="160.951" y2="242.374" gradientUnits="userSpaceOnUse">
<stop stop-color="#B164FF"/>
<stop offset="1" stop-color="#63F9DB"/>
</linearGradient>
<radialGradient id="paint6_radial_72_135" cx="0" cy="0" r="1" gradientUnits="userSpaceOnUse" gradientTransform="translate(131.696 170.192) rotate(126.946) scale(20.2602)">
<stop offset="0.28" stop-color="#8CFE66" stop-opacity="0"/>
<stop offset="0.725" stop-color="#8CFE66" stop-opacity="0.6"/>
<stop offset="0.9" stop-color="#3DACF2" stop-opacity="0.6"/>
</radialGradient>
</defs>
</svg>
